# xmcd
#
# Track frame offsets: 
#        150
#        8802
#        26244
#        40245
#        55030
#        72817
#        87417
#        103495
#        107260
#        126780
#        141982
#        159240
#        179955
#        203045
#
# Disc length: 3067 seconds
#
# Revision: 1
# Processed by: cddbd v1.5.2PL0 Copyright (c) Steve Scherf et al.
# Submitted via: ExactAudioCopy v0.99pb4
#
DISCID=c30bf90e
DTITLE=Сектор газа - Нажми на газ
DYEAR=1997
DGENRE=Punk Rock
TTITLE0=Нажми на газ
TTITLE1=Кабак
TTITLE2=Подвал
TTITLE3=Девушка
TTITLE4=Суд
TTITLE5=Взял вину на себя
TTITLE6=Оборотень
TTITLE7=Мажор
TTITLE8=Лирика
TTITLE9=Дурак
TTITLE10=Тёща
TTITLE11=Мумия
TTITLE12=Репетиция
TTITLE13=Тёща (Styob House rmx)
EXTD=
EXTT0=
EXTT1=
EXTT2=
EXTT3=
EXTT4=
EXTT5=
EXTT6=
EXTT7=
EXTT8=
EXTT9=
EXTT10=
EXTT11=
EXTT12=
EXTT13=
PLAYORDER=
